<?xml version="1.0" standalone="no"?>
<!DOCTYPE svg PUBLIC "-//W3C//DTD SVG 20010904//EN"
 "http://www.w3.org/TR/2001/REC-SVG-20010904/DTD/svg10.dtd">
<svg version="1.0" xmlns="http://www.w3.org/2000/svg"
 width="512.000000pt" height="512.000000pt" viewBox="0 0 512.000000 512.000000"
 preserveAspectRatio="xMidYMid meet">
<metadata>
Created by potrace 1.11, written by Peter Selinger 2001-2013
</metadata>
<g transform="translate(0.000000,512.000000) scale(0.100000,-0.100000)"
fill="#000000" stroke="none">
<path d="M2420 4624 c-177 -38 -348 -171 -429 -334 -57 -117 -73 -203 -69
-372 3 -148 9 -166 72 -212 27 -21 38 -21 566 -21 528 0 539 0 566 21 63 46
69 64 72 212 4 169 -12 255 -69 372 -127 256 -423 396 -709 334z"/>
<path d="M230 3987 c-98 -30 -192 -128 -219 -227 -9 -34 -11 -404 -9 -1545 l3
-1500 22 -47 c27 -60 101 -134 161 -161 l47 -22 2325 0 2325 0 47 22 c60 27
134 101 161 161 l22 47 0 1525 0 1525 -22 47 c-27 60 -101 134 -161 161 -47
22 -53 22 -728 25 l-681 3 -6 -128 c-4 -90 -11 -145 -25 -184 -50 -142 -154
-247 -300 -302 -56 -22 -64 -22 -632 -22 -568 0 -576 0 -632 22 -146 55 -250
160 -300 302 -14 39 -21 94 -25 184 l-6 127 -666 -1 c-442 -1 -678 -5 -701
-12z m1364 -977 c138 -47 247 -156 298 -298 28 -79 28 -224 0 -303 -51 -143
-157 -250 -300 -301 -80 -29 -224 -29 -304 0 -143 51 -249 158 -300 301 -28
78 -28 224 0 302 61 170 196 286 372 319 61 12 169 3 234 -20z m2476 -632 c48
-25 90 -89 90 -138 0 -49 -42 -113 -90 -137 l-44 -23 -666 0 -666 0 -44 23
c-48 24 -90 88 -90 137 0 49 42 113 90 138 l44 22 666 0 666 0 44 -22z m-2438
-473 c140 -18 263 -51 392 -104 208 -85 215 -98 216 -361 0 -173 -2 -189 -22
-230 -17 -33 -35 -51 -68 -67 l-44 -23 -666 0 -666 0 -44 22 c-33 17 -51 35
-67 68 -21 41 -23 57 -23 230 1 272 2 275 255 377 221 88 491 121 737 88z
m2438 -167 c48 -25 90 -89 90 -138 0 -49 -42 -113 -90 -137 l-44 -23 -666 0
-666 0 -44 23 c-48 24 -90 88 -90 137 0 49 42 113 90 138 l44 22 666 0 666 0
44 -22z"/>
</g>
</svg>
